<svg width="18" height="19" viewBox="0 0 18 19" fill="none" xmlns="http://www.w3.org/2000/svg">
<path d="M8.73987 0.766846C3.9367 0.766846 0.00683594 4.69671 0.00683594 9.49988C0.00683594 14.303 3.9367 18.2329 8.73987 18.2329C13.543 18.2329 17.4729 14.303 17.4729 9.49988C17.4729 4.69671 13.543 0.766846 8.73987 0.766846ZM14.7657 6.00667H12.2331C11.9711 4.87137 11.5344 3.91074 11.0105 2.86277C12.5824 3.47409 13.9797 4.52205 14.7657 6.00667ZM8.73987 2.51345C9.43851 3.56142 10.0498 4.69671 10.3991 6.00667H7.08059C7.42991 4.78404 8.04123 3.56142 8.73987 2.51345ZM2.01543 11.2465C1.84077 10.7225 1.75344 10.1112 1.75344 9.49988C1.75344 8.88857 1.84077 8.27725 2.01543 7.75327H4.98466C4.89733 8.36458 4.89733 8.88857 4.89733 9.49988C4.89733 10.1112 4.98466 10.6352 4.98466 11.2465H2.01543ZM2.71408 12.9931H5.24666C5.50865 14.1284 5.9453 15.089 6.46928 16.137C4.89733 15.5257 3.50005 14.4777 2.71408 12.9931ZM5.24666 6.00667H2.71408C3.58738 4.52205 4.89733 3.47409 6.46928 2.86277C5.9453 3.91074 5.50865 4.87137 5.24666 6.00667ZM8.73987 16.4863C8.04123 15.4383 7.42991 14.303 7.08059 12.9931H10.3991C10.0498 14.2157 9.43851 15.4383 8.73987 16.4863ZM10.7485 11.2465H6.73127C6.64394 10.6352 6.55661 10.1112 6.55661 9.49988C6.55661 8.88857 6.64394 8.36458 6.73127 7.75327H10.8358C10.9231 8.36458 11.0105 8.88857 11.0105 9.49988C11.0105 10.1112 10.8358 10.6352 10.7485 11.2465ZM11.0105 16.137C11.5344 15.1763 11.9711 14.1284 12.2331 12.9931H14.7657C13.9797 14.4777 12.5824 15.5257 11.0105 16.137ZM12.5824 11.2465C12.6697 10.6352 12.6697 10.1112 12.6697 9.49988C12.6697 8.88857 12.5824 8.36458 12.5824 7.75327H15.5516C15.7263 8.27725 15.8136 8.88857 15.8136 9.49988C15.8136 10.1112 15.7263 10.7225 15.5516 11.2465H12.5824Z" fill="#A68E67"/>
</svg>
