<svg width="51" height="50" viewBox="0 0 51 50" fill="none" xmlns="http://www.w3.org/2000/svg">
<path d="M26.713 0C27.4668 0.251256 28.3043 0.41876 29.0581 0.753769C29.7281 1.08878 30.3144 1.59129 30.9844 1.9263C31.1519 2.01005 31.4869 2.17755 31.6544 2.17755C36.0095 1.84255 39.1921 4.77387 40.0296 8.0402C40.1134 8.54271 40.3646 8.79397 40.7834 9.04523C43.966 11.139 45.2222 15.2429 43.7147 18.8442C43.631 19.0955 43.631 19.3467 43.7147 19.598C45.306 23.2831 43.8822 27.4707 40.5321 29.5645C40.3646 29.6482 40.1971 29.8995 40.1134 30.1508C39.1921 33.9196 35.842 36.5159 31.9894 36.2647C31.5707 36.2647 31.2356 36.3484 30.8169 36.5997C27.8856 39.0285 23.6142 39.0285 20.6829 36.5997C20.4316 36.3484 20.0966 36.2647 19.7616 36.2647C15.8253 36.5159 12.3914 34.0033 11.4702 30.1508C11.3864 29.8995 11.2189 29.6482 11.0514 29.5645C7.61756 27.4707 6.27752 23.2831 7.86881 19.598C7.95256 19.4305 7.95256 19.1792 7.86881 19.0117C6.27752 15.2429 7.61756 11.139 11.1351 9.04523C11.3026 8.96147 11.4702 8.71022 11.4702 8.54271C12.3077 5.19263 14.8202 2.84757 18.2541 2.34506C18.8403 2.26131 19.4266 2.34506 20.0129 2.34506C20.1804 2.34506 20.3479 2.34506 20.5154 2.17755C21.7717 1.08878 23.1117 0.41876 24.703 0.251256C24.7867 0.251256 24.7867 0.167504 24.8705 0.167504C25.373 0 26.043 0 26.713 0ZM25.708 33.4171C33.4132 33.5008 39.8621 27.1357 39.9459 19.3467C40.0296 11.474 33.6645 5.02513 25.7918 4.94137C18.0028 4.85762 11.5539 11.2228 11.4702 18.928C11.3864 26.8844 17.7516 33.3333 25.708 33.4171Z" fill="white"/>
<path d="M32.4082 49.9163C30.7331 46.985 29.0581 44.1374 27.3831 41.1223C27.7181 41.0386 28.0531 40.9548 28.3881 40.8711C29.6444 40.5361 30.9006 40.0336 31.9894 39.2798C32.1569 39.196 32.4082 39.0285 32.5757 39.0285C35.4233 38.9448 37.8521 37.9398 39.8621 36.0135C39.9459 35.9297 40.0296 35.846 40.1134 35.7622C41.5372 38.191 42.8772 40.5361 44.301 42.9649C43.296 43.1324 42.3747 43.2999 41.4534 43.4674C40.1134 43.7187 38.7733 43.8862 37.5171 44.1374C37.2658 44.1374 37.0145 44.3049 36.9308 44.4724C35.507 46.1475 34.167 47.8225 32.8269 49.4975C32.5757 49.6651 32.4919 49.7488 32.4082 49.9163Z" fill="white"/>
<path d="M19.0078 49.9163C17.8352 48.4925 16.6627 47.0687 15.5739 45.7287C14.3176 44.2211 14.3176 44.2211 12.4751 43.9699C10.8001 43.7186 9.20877 43.4674 7.61748 43.2161C7.53373 43.2161 7.36622 43.1324 7.28247 43.1324C8.70626 40.7035 10.0463 38.3585 11.3863 36.0134C12.0563 36.5159 12.5589 37.0185 13.2289 37.4372C14.9877 38.6097 16.8302 39.196 18.924 39.196C19.0915 39.196 19.3428 39.2798 19.4265 39.3635C20.7666 40.2848 22.1903 40.9548 23.8654 41.2061C23.9491 41.2061 24.0329 41.2898 24.1166 41.2898C22.3578 44.0536 20.6828 46.985 19.0078 49.9163Z" fill="white"/>
<path d="M14.4014 19.0955C14.4014 12.8978 19.5102 7.78894 25.7079 7.78894C31.9893 7.78894 37.0144 12.8978 37.0144 19.1792C37.0144 25.3769 31.9056 30.4858 25.7079 30.4858C19.4265 30.4858 14.4014 25.3769 14.4014 19.0955ZM30.8168 14.4054C28.723 16.4992 26.6292 18.593 24.4516 20.7705C23.1953 19.4305 21.8553 18.1742 20.6828 16.9179C20.0128 17.5879 19.3427 18.258 18.6727 18.8442C20.599 20.7705 22.5253 22.6968 24.4516 24.6231C27.2154 21.8593 30.063 19.0117 32.8268 16.2479C32.1568 15.7454 31.4868 15.0754 30.8168 14.4054Z" fill="white"/>
</svg>
