<svg width="51" height="50" viewBox="0 0 51 50" fill="none" xmlns="http://www.w3.org/2000/svg">
<g clip-path="url(#clip0_59_395)">
<path d="M0.249756 10.3015C7.11743 10.3015 13.9013 10.3015 20.769 10.3015C20.769 17.0854 20.769 23.8694 20.769 30.737C20.6015 30.737 20.434 30.737 20.1828 30.737C15.9951 30.737 11.8075 30.737 7.70369 30.737C3.93485 30.737 1.00352 28.3082 0.333508 24.5394C0.333508 24.4556 0.249756 24.4556 0.249756 24.3719C0.249756 19.7655 0.249756 15.0754 0.249756 10.3015Z" fill="white"/>
<path d="M47.151 48.325C32.4944 48.325 17.8378 48.325 3.18115 48.325C3.18115 43.1323 3.18115 37.9397 3.18115 32.7471C3.2649 32.7471 3.34866 32.7471 3.43241 32.8308C4.77244 33.4171 6.27998 33.6684 7.70376 33.6684C11.8076 33.6684 15.9952 33.6684 20.0991 33.6684C20.2666 33.6684 20.5178 33.6684 20.6853 33.6684C20.6853 35.5947 20.6853 37.521 20.6853 39.4472C23.6167 39.4472 26.548 39.4472 29.4793 39.4472C29.4793 37.521 29.4793 35.5947 29.4793 33.6684C29.7306 33.6684 29.8981 33.6684 30.0656 33.6684C33.8344 33.6684 37.6033 33.6684 41.3721 33.6684C43.2984 33.6684 45.2247 33.5846 47.151 32.6633C47.151 37.9397 47.151 43.1323 47.151 48.325ZM32.4944 42.4623C35.4257 42.4623 38.357 42.4623 41.2884 42.4623C41.2884 41.4573 41.2884 40.536 41.2884 39.6148C38.357 39.6148 35.4257 39.6148 32.4944 39.6148C32.4944 40.536 32.4944 41.5411 32.4944 42.4623Z" fill="white"/>
<path d="M29.6467 30.8208C29.6467 23.9531 29.6467 17.1692 29.6467 10.3853C36.4306 10.3853 43.2983 10.3853 50.166 10.3853C50.166 10.5528 50.166 10.7203 50.166 10.8878C50.166 15.0754 50.166 19.263 50.166 23.5343C50.166 27.5544 46.8997 30.8208 42.8796 30.8208C38.6082 30.8208 34.3368 30.8208 30.1492 30.8208C29.9817 30.8208 29.8142 30.8208 29.6467 30.8208Z" fill="white"/>
<path d="M37.3518 7.37018C36.2631 7.37018 35.1743 7.37018 34.1692 7.37018C34.0855 7.37018 33.918 7.28643 33.8342 7.20268C32.243 5.27638 30.2329 4.43886 27.7203 4.52261C25.9615 4.52261 24.2865 4.52261 22.5277 4.52261C20.1826 4.52261 18.1726 5.36013 16.6651 7.20268C16.5813 7.28643 16.4138 7.45393 16.2463 7.45393C15.1575 7.45393 14.1525 7.45393 13.0637 7.45393C13.4825 6.53266 14.0687 5.69514 14.655 5.02512C16.7488 2.76382 19.2614 1.67504 22.3602 1.67504C24.3703 1.67504 26.4641 1.59129 28.4741 1.67504C32.4105 1.84254 35.3418 3.76884 37.2681 7.20268C37.2681 7.20268 37.2681 7.28643 37.3518 7.37018Z" fill="white"/>
<path d="M26.6318 30.737C25.6267 30.737 24.7055 30.737 23.7842 30.737C23.7842 23.9531 23.7842 17.1692 23.7842 10.3015C24.7055 10.3015 25.7105 10.3015 26.6318 10.3015C26.6318 17.1692 26.6318 23.9531 26.6318 30.737Z" fill="white"/>
<path d="M23.7842 33.7521C24.7892 33.7521 25.7105 33.7521 26.6318 33.7521C26.6318 34.6733 26.6318 35.6784 26.6318 36.5996C25.7105 36.5996 24.7892 36.5996 23.7842 36.5996C23.7842 35.6784 23.7842 34.7571 23.7842 33.7521Z" fill="white"/>
</g>
<defs>
<clipPath id="clip0_59_395">
<rect width="50" height="50" fill="white" transform="translate(0.249756)"/>
</clipPath>
</defs>
</svg>
