<svg width="51" height="50" viewBox="0 0 51 50" fill="none" xmlns="http://www.w3.org/2000/svg">
<path d="M6.19386 0C13.9828 0 21.8555 0 29.6444 0C29.6444 3.60134 29.6444 7.20268 29.6444 10.8878C33.2458 10.8878 36.8471 10.8878 40.4485 10.8878C40.4485 16.8342 40.4485 22.7806 40.4485 28.727C40.281 28.727 40.1135 28.727 39.8622 28.727C37.9359 28.727 36.0934 28.727 34.1671 28.727C33.9158 28.727 33.5808 28.8107 33.4133 28.8945C31.2357 29.9832 29.0582 31.072 26.7969 32.1608C26.4619 32.3283 26.3781 32.4958 26.3781 32.8308C26.3781 35.8459 26.3781 38.861 26.3781 41.876C26.3781 43.5511 26.7969 44.9749 27.7181 46.3987C27.8019 46.5662 27.8857 46.6499 27.9694 46.8174C20.683 46.8174 13.3965 46.8174 6.11011 46.8174C6.11011 46.5662 6.11011 46.3987 6.11011 46.1474C6.11011 32.9983 6.11011 19.933 6.11011 6.78392C6.19386 4.52261 6.19386 2.26131 6.19386 0ZM10.9677 21.6918C19.2592 21.6918 27.5506 21.6918 35.7583 21.6918C35.7583 20.6868 35.7583 19.7655 35.7583 18.8442C27.4669 18.8442 19.2592 18.8442 10.9677 18.8442C10.9677 19.7655 10.9677 20.7705 10.9677 21.6918ZM26.4619 25.0419C21.2692 25.0419 16.1604 25.0419 10.9677 25.0419C10.9677 26.0469 10.9677 26.9682 10.9677 27.8894C16.1604 27.8894 21.2692 27.8894 26.4619 27.8894C26.4619 26.9682 26.4619 26.0469 26.4619 25.0419ZM20.2642 33.8358C17.1654 33.8358 14.0666 33.8358 10.9677 33.8358C10.9677 34.7571 10.9677 35.6784 10.9677 36.6834C14.0666 36.6834 17.1654 36.6834 20.2642 36.6834C20.2642 35.6784 20.2642 34.7571 20.2642 33.8358ZM10.9677 12.9816C14.0666 12.9816 17.1654 12.9816 20.1805 12.9816C20.1805 12.0603 20.1805 11.0553 20.1805 10.134C17.0816 10.134 13.9828 10.134 10.9677 10.134C10.9677 11.0553 10.9677 11.9765 10.9677 12.9816Z" fill="white"/>
<path d="M29.3933 38.4423C29.3933 37.1022 29.3933 35.8459 29.3933 34.5059C29.3933 34.1709 29.4771 34.0034 29.7283 33.9196C31.2359 33.1659 32.6596 32.4959 34.1672 31.7421C34.3347 31.6583 34.5859 31.5746 34.7534 31.5746C36.5122 31.5746 38.1873 31.5746 39.9461 31.5746C40.1973 31.5746 40.3648 31.6583 40.6161 31.7421C42.0399 32.4121 43.5474 33.1659 44.9712 33.9196C45.3062 34.0871 45.39 34.2547 45.39 34.5897C45.39 37.0185 45.39 39.4473 45.39 41.8761C45.39 43.6349 44.5524 44.9749 43.3799 46.2312C41.7049 47.8225 39.7786 48.995 37.6848 49.8325C37.601 49.9163 37.3498 49.9163 37.266 49.8325C34.7534 48.8275 32.4084 47.4875 30.6496 45.3099C29.8121 44.3049 29.3933 43.1324 29.3933 41.7923C29.3933 40.7036 29.3933 39.531 29.3933 38.4423ZM41.0349 35.6784C39.5273 37.186 37.936 38.7773 36.4285 40.3686C35.5072 39.4473 34.5859 38.526 33.8322 37.6885C33.1622 38.3585 32.4921 39.0285 31.9059 39.6985C33.4134 41.2061 35.0047 42.7974 36.596 44.3887C38.7735 42.2111 41.0349 39.9498 43.2124 37.7722C42.3749 37.1022 41.7886 36.4322 41.0349 35.6784Z" fill="white"/>
<path d="M32.6594 1.50757C34.7532 3.60137 36.847 5.69517 38.9408 7.78898C36.847 7.78898 34.7532 7.78898 32.6594 7.78898C32.6594 5.77892 32.6594 3.68512 32.6594 1.50757Z" fill="white"/>
</svg>
