<svg width="51" height="50" viewBox="0 0 51 50" fill="none" xmlns="http://www.w3.org/2000/svg">
<g clip-path="url(#clip0_59_416)">
<path d="M0.25 7.87268C1.17127 7.87268 2.1763 7.87268 3.18132 7.87268C3.18132 18.928 3.18132 29.8995 3.18132 41.0385C3.43258 41.0385 3.60008 41.0385 3.76759 41.0385C9.21147 41.0385 14.5716 41.0385 20.0155 41.0385C22.0255 41.0385 23.7843 42.7973 23.7006 44.7236C23.7006 44.8074 23.7006 44.8074 23.7006 44.8911C15.9116 44.8911 8.03895 44.8911 0.25 44.8911C0.25 32.5795 0.25 20.268 0.25 7.87268Z" fill="white"/>
<path d="M6.11255 4.94141C6.28005 4.94141 6.36381 4.94141 6.44756 4.94141C10.8027 4.94141 15.074 4.94141 19.4291 4.94141C20.9367 4.94141 22.2767 5.44392 23.533 6.36519C23.6167 6.44894 23.7005 6.7002 23.7005 6.8677C23.7005 17.588 23.7005 28.392 23.7005 39.1123V39.196H23.6167C22.2767 38.2747 20.6854 38.1072 19.0941 38.1072C14.9903 38.1072 10.8864 38.1072 6.69881 38.1072C6.53131 38.1072 6.28005 38.1072 6.11255 38.1072C6.11255 27.052 6.11255 16.0804 6.11255 4.94141ZM10.3839 14.1541C13.4827 14.1541 16.4978 14.1541 19.5129 14.1541C19.5129 13.1491 19.5129 12.2278 19.5129 11.3066C16.4978 11.3066 13.4827 11.3066 10.3839 11.3066C10.3839 12.3116 10.3839 13.2329 10.3839 14.1541ZM19.5129 17.1692C16.4978 17.1692 13.399 17.1692 10.3839 17.1692C10.3839 18.1742 10.3839 19.0955 10.3839 20.0168C13.4827 20.0168 16.4978 20.0168 19.5129 20.0168C19.5129 19.0955 19.5129 18.1742 19.5129 17.1692ZM10.3839 25.8794C13.4827 25.8794 16.4978 25.8794 19.5129 25.8794C19.5129 24.8744 19.5129 23.9531 19.5129 23.0319C16.4978 23.0319 13.399 23.0319 10.3839 23.0319C10.3839 23.9531 10.3839 24.9582 10.3839 25.8794ZM19.5129 28.8945C16.4141 28.8945 13.399 28.8945 10.3839 28.8945C10.3839 29.8995 10.3839 30.8208 10.3839 31.7421C13.399 31.7421 16.4978 31.7421 19.5129 31.7421C19.5129 30.8208 19.5129 29.8158 19.5129 28.8945Z" fill="white"/>
<path d="M44.3035 4.94142C44.3035 15.9967 44.3035 26.9682 44.3035 38.0235C44.136 38.0235 43.8848 38.0235 43.7173 38.0235C39.9484 38.0235 36.1796 38.0235 32.4107 38.0235C29.3119 38.0235 29.3119 38.0235 26.6318 39.1123C26.6318 38.9448 26.6318 38.7773 26.6318 38.6098C26.6318 28.057 26.6318 17.5042 26.6318 6.95147C26.6318 6.53271 26.7156 6.3652 27.0506 6.11395C28.3069 5.36018 29.5632 4.85767 31.0707 4.85767C35.3421 4.85767 39.6134 4.85767 43.8848 4.85767C44.0523 4.94142 44.136 4.94142 44.3035 4.94142ZM30.9032 14.1541C34.002 14.1541 37.0171 14.1541 40.0322 14.1541C40.0322 13.1491 40.0322 12.2279 40.0322 11.3066C37.0171 11.3066 33.9183 11.3066 30.9032 11.3066C30.9032 12.3116 30.9032 13.2329 30.9032 14.1541ZM30.9032 17.1692C30.9032 18.1742 30.9032 19.0955 30.9032 20.0168C33.9183 20.0168 36.9333 20.0168 40.0322 20.0168C40.0322 19.0118 40.0322 18.0905 40.0322 17.1692C37.0171 17.1692 34.002 17.1692 30.9032 17.1692ZM40.0322 25.8794C40.0322 24.8744 40.0322 23.9531 40.0322 23.0319C37.0171 23.0319 34.002 23.0319 30.9869 23.0319C30.9869 24.0369 30.9869 24.9582 30.9869 25.8794C33.9183 25.8794 36.9333 25.8794 40.0322 25.8794ZM40.0322 31.7421C40.0322 30.7371 40.0322 29.8158 40.0322 28.8945C37.0171 28.8945 34.002 28.8945 30.9032 28.8945C30.9032 29.8995 30.9032 30.8208 30.9032 31.7421C34.002 31.7421 37.0171 31.7421 40.0322 31.7421Z" fill="white"/>
<path d="M26.7156 44.8912C26.5481 42.8812 28.3069 41.0386 30.4007 41.0386C35.2584 41.0386 40.116 41.0386 45.0574 41.0386C45.8111 41.0386 46.4811 41.0386 47.3187 41.0386C47.3187 29.9833 47.3187 18.9281 47.3187 7.95654C48.3237 7.95654 49.245 7.95654 50.25 7.95654C50.25 20.2681 50.25 32.5797 50.25 44.975C42.2935 44.8912 34.5046 44.8912 26.7156 44.8912Z" fill="white"/>
</g>
<defs>
<clipPath id="clip0_59_416">
<rect width="50" height="50" fill="white" transform="translate(0.25)"/>
</clipPath>
</defs>
</svg>
