<svg width="851" height="1348" viewBox="0 0 851 1348" fill="none" xmlns="http://www.w3.org/2000/svg">
<path d="M925.216 841.609C1156.45 841.609 1343.91 654.153 1343.91 422.915C1343.91 191.678 1156.45 4.22241 925.216 4.22241C693.978 4.22241 506.523 191.678 506.523 422.915C506.523 654.153 693.978 841.609 925.216 841.609Z" fill="#A68E67"/>
<path d="M449.419 422.917C449.108 398.022 433.549 388.687 414.878 388.687C389.984 388.687 271.424 422.917 271.424 422.917C271.424 422.917 389.984 457.146 414.878 457.146C433.549 457.146 449.419 447.811 449.419 422.917Z" fill="#A68E67"/>
<path d="M743.135 862.493C720.016 853.254 705.437 864.056 698.292 881.305C688.766 904.305 675.019 1026.94 675.019 1026.94C675.019 1026.94 752.014 930.503 761.541 907.504C768.686 890.254 766.134 872.019 743.135 862.493Z" fill="#A68E67"/>
<path d="M485.636 240.837C494.875 217.719 484.073 203.14 466.824 195.995C443.824 186.468 321.19 172.722 321.19 172.722C321.19 172.722 417.626 249.717 440.625 259.243C457.875 266.388 476.109 263.837 485.636 240.837Z" fill="#A68E67"/>
<path d="M588.776 759.353C570.953 741.97 553.35 746.371 540.148 759.573C522.544 777.176 462.914 885.215 462.914 885.215C462.914 885.215 570.953 825.584 588.556 807.981C601.758 794.779 606.379 776.956 588.776 759.353Z" fill="#A68E67"/>
<path d="M588.776 86.478C606.159 68.6549 601.759 51.0519 588.556 37.8497C570.953 20.2466 462.915 -39.3836 462.915 -39.3836C462.915 -39.3836 522.545 68.6549 540.148 86.2579C553.35 99.4602 571.173 104.081 588.776 86.478Z" fill="#A68E67"/>
<path d="M485.636 604.994C475.822 582.114 457.874 579.443 440.625 586.588C417.625 596.115 321.19 673.11 321.19 673.11C321.19 673.11 443.824 659.363 466.823 649.837C484.073 642.692 495.162 627.994 485.636 604.994Z" fill="#A68E67"/>
</svg>
