<svg width="16" height="18" viewBox="0 0 16 18" fill="none" xmlns="http://www.w3.org/2000/svg">
<path fill-rule="evenodd" clip-rule="evenodd" d="M0.379647 2.79862C0.286334 2.05224 0.890897 1.51238 1.63975 1.0538C4.40999 -0.592498 4.45141 0.495742 4.91117 1.72226C6.02567 4.69557 6.00727 3.73293 4.59738 5.68786C4.10219 6.37438 5.32753 8.57766 5.84143 9.4738C6.36067 10.3671 7.65617 12.5297 8.49807 12.4441C10.8961 12.2005 10.0717 11.7031 12.0893 14.1552C12.9215 15.1664 13.8436 15.7465 11.032 17.3226C10.2608 17.7417 9.49103 17.9955 8.89106 17.5413C5.15664 14.4757 1.16728 7.56621 0.379718 2.79866L0.379647 2.79862ZM8.49185 2.13588C10.5604 2.15274 12.4651 3.25902 13.4996 5.05091C14.5305 6.83625 14.537 9.05298 13.5212 10.8466C13.3718 11.1094 13.4641 11.4437 13.7269 11.5928C13.99 11.7419 14.3242 11.6498 14.473 11.3869C15.6785 9.25887 15.6704 6.624 14.4474 4.50587C13.2159 2.37355 10.9629 1.06286 8.50049 1.04211C8.1986 1.03963 7.95174 1.28271 7.94963 1.58474C7.94715 1.88664 8.18997 2.1335 8.49186 2.13574L8.49185 2.13588ZM8.47551 4.40948C9.73903 4.41994 10.8995 5.09561 11.5312 6.19001C12.1611 7.27851 12.1637 8.63076 11.5438 9.72435C11.3949 9.98704 11.4869 10.3212 11.7499 10.4705C12.0126 10.6196 12.3468 10.5276 12.4961 10.2645C13.3033 8.83945 13.3007 7.05933 12.4788 5.64081C11.6522 4.20924 10.1364 3.32943 8.48409 3.31572C8.1822 3.31323 7.93534 3.55632 7.9331 3.85835C7.93048 4.1605 8.17344 4.40697 8.47546 4.40948L8.47551 4.40948ZM8.56608 6.68831C8.98519 6.72673 9.3519 6.96223 9.56208 7.32646C9.79026 7.72141 9.79183 8.20496 9.56652 8.60199C9.41714 8.8648 9.50941 9.19912 9.77262 9.3481C10.0353 9.49748 10.3695 9.40521 10.5187 9.14213C10.9322 8.41198 10.9293 7.50461 10.5096 6.77756C10.123 6.10816 9.43413 5.66958 8.66453 5.59912C8.36381 5.57181 8.09774 5.79385 8.07054 6.09445C8.04349 6.39529 8.26512 6.66124 8.56608 6.68831Z" fill="#A68E67"/>
</svg>
